<?xml version="1.0" standalone="no"?>
<!DOCTYPE svg PUBLIC "-//W3C//DTD SVG 20010904//EN"
 "http://www.w3.org/TR/2001/REC-SVG-20010904/DTD/svg10.dtd">
<svg version="1.0" xmlns="http://www.w3.org/2000/svg"
 width="800.000000pt" height="383.000000pt" viewBox="0 0 800.000000 383.000000"
 preserveAspectRatio="xMidYMid meet">

<g transform="translate(0.000000,383.000000) scale(0.100000,-0.100000)"
fill="#000000" stroke="none">
<path d="M7485 3643 c-43 -11 -102 -63 -130 -115 l-30 -53 0 -380 0 -380 29
-52 c16 -29 46 -64 67 -79 71 -49 97 -53 347 -54 l232 0 0 45 0 44 -244 3
c-230 3 -246 4 -273 24 -50 37 -73 81 -73 140 0 53 1 54 29 54 16 0 39 8 52
19 22 18 22 19 6 45 -13 20 -26 26 -52 26 l-35 0 0 261 c0 248 1 263 21 299
12 21 38 47 59 59 35 20 52 21 274 21 l236 0 0 40 0 40 -247 -1 c-137 -1 -257
-4 -268 -6z"/>
<path d="M905 3515 c-33 -14 -61 -25 -62 -25 -2 0 -3 -9 -3 -20 0 -25 20 -26
84 -1 75 28 98 16 132 -69 15 -38 33 -71 40 -74 8 -3 33 4 56 14 66 30 73 27
98 -39 12 -33 20 -65 18 -72 -2 -6 -24 -20 -48 -29 -64 -25 -68 -37 -37 -112
15 -34 27 -70 27 -79 0 -28 -35 -49 -196 -115 -87 -36 -162 -70 -166 -77 -4
-7 -2 -18 5 -25 11 -10 45 0 182 55 231 93 255 120 210 240 l-24 62 35 11 c43
14 74 46 74 76 0 12 -14 54 -32 93 -38 88 -54 94 -153 66 -18 -5 -25 3 -48 53
-21 45 -36 64 -62 76 -44 21 -59 20 -130 -9z"/>
<path d="M707 3478 c-248 -390 -387 -619 -382 -628 3 -5 13 -10 20 -10 13 0
98 32 196 74 l36 15 -23 -97 c-12 -53 -31 -129 -40 -168 -21 -87 -13 -119 22
-96 23 14 432 665 427 679 -8 20 -19 17 -141 -32 -61 -25 -114 -45 -116 -45
-2 0 14 69 35 153 45 177 48 207 19 207 -13 0 -31 -18 -53 -52z m-43 -238
c-29 -116 -30 -140 -6 -140 9 0 60 18 112 40 51 22 95 38 96 37 1 -2 -262
-416 -270 -424 -2 -3 9 46 24 109 38 150 36 152 -95 98 -54 -22 -99 -39 -100
-38 -3 4 258 419 261 415 1 -1 -9 -45 -22 -97z"/>
<path d="M6480 3488 c-64 -33 -119 -123 -92 -150 18 -18 98 19 128 58 30 39
45 114 22 114 -7 0 -34 -10 -58 -22z"/>
<path d="M7611 3422 c-19 -9 -44 -30 -55 -45 -20 -27 -21 -44 -24 -275 -3
-285 0 -299 78 -339 41 -21 58 -23 217 -23 l173 0 0 45 0 45 -174 0 c-187 0
-199 3 -212 54 -3 12 -4 116 -2 230 3 192 4 209 22 222 15 11 59 14 193 14
l173 0 0 45 0 45 -177 0 c-150 0 -183 -3 -212 -18z"/>
<path d="M317 3276 c-126 -52 -239 -104 -253 -116 -13 -13 -28 -37 -34 -55
-10 -30 -2 -53 87 -270 84 -205 101 -240 127 -256 38 -23 78 -23 136 0 51 21
73 47 51 60 -9 6 -32 2 -65 -10 -59 -24 -91 -19 -110 19 -7 15 -51 119 -97
231 -77 191 -82 205 -68 229 11 20 61 45 239 118 123 51 231 96 238 101 15 9
6 43 -12 43 -6 -1 -114 -43 -239 -94z"/>
<path d="M7771 3326 c-7 -8 -13 -30 -15 -50 -5 -49 -20 -64 -68 -68 -48 -3
-70 -27 -52 -55 6 -10 23 -19 38 -21 22 -3 26 -8 26 -38 0 -30 -3 -34 -25 -34
-17 0 -29 -8 -37 -25 -16 -36 12 -65 63 -65 44 0 50 -7 55 -62 5 -51 10 -58
38 -58 28 0 46 18 46 47 0 20 5 23 34 23 30 0 35 -4 38 -26 4 -35 31 -53 56
-38 21 14 30 80 30 234 0 160 -9 230 -30 244 -25 15 -52 -3 -56 -38 -3 -22 -8
-26 -38 -26 -29 0 -34 3 -34 23 0 42 -44 63 -69 33z m161 -163 c24 -22 25
-109 1 -135 -18 -20 -91 -25 -123 -8 -36 19 -38 110 -4 144 21 22 102 21 126
-1z"/>
<path d="M6185 3316 c-50 -22 -94 -76 -112 -135 -13 -47 -14 -65 -4 -120 15
-82 50 -156 101 -213 56 -64 88 -75 154 -55 29 10 65 17 81 17 16 0 52 -7 81
-17 44 -14 57 -14 84 -3 36 15 88 73 121 135 l24 45 -38 31 c-84 69 -90 161
-15 230 29 28 30 30 13 49 -45 50 -148 65 -238 34 -43 -15 -51 -15 -94 0 -56
19 -117 20 -158 2z"/>
<path d="M729 2771 c-43 -35 10 -55 60 -22 19 12 6 41 -18 41 -10 0 -29 -9
-42 -19z"/>
<path d="M824 2546 c-59 -26 -64 -43 -64 -228 0 -99 4 -177 11 -191 24 -52 48
-57 292 -57 l225 0 60 45 c53 40 65 45 113 45 74 0 124 16 149 47 18 23 20 40
20 153 0 202 13 196 -443 198 -265 2 -338 -1 -363 -12z m724 -58 c8 -8 12 -51
12 -130 0 -137 -1 -138 -99 -138 -73 0 -94 -8 -150 -54 l-43 -36 -207 0 c-148
0 -210 3 -219 12 -8 8 -12 60 -12 169 0 130 3 160 16 173 13 14 59 16 353 16
249 0 340 -3 349 -12z"/>
<path d="M930 2441 c-17 -16 -30 -38 -30 -48 0 -28 25 -59 60 -73 47 -19 37
-33 -20 -25 -42 6 -51 4 -57 -11 -16 -43 77 -70 136 -39 31 16 41 33 41 72 0
19 4 24 22 21 14 -2 24 -12 28 -28 10 -43 70 -34 70 11 0 57 -96 97 -158 66
-17 -8 -33 -12 -36 -9 -13 12 -5 31 15 37 31 10 21 49 -14 53 -20 2 -35 -5
-57 -27z"/>
<path d="M1285 2448 c-69 -37 -55 -118 26 -143 35 -12 8 -27 -36 -21 -64 10
-83 -24 -28 -53 61 -32 153 10 153 70 0 40 37 42 42 2 4 -36 51 -46 67 -14 36
66 -89 133 -158 85 -17 -12 -26 -13 -34 -5 -9 9 -4 17 17 35 50 39 9 76 -49
44z"/>
<path d="M877 2186 c-10 -25 16 -36 88 -36 75 0 104 13 84 37 -16 19 -165 18
-172 -1z"/>
<path d="M6527 2514 c-4 -4 -7 -25 -7 -46 0 -32 -3 -38 -21 -38 -56 0 -149
-90 -149 -143 0 -13 -9 -17 -34 -17 -67 0 -74 -62 -7 -68 18 -2 31 -9 32 -18
0 -8 1 -62 2 -121 l1 -108 -40 -5 c-34 -4 -39 -8 -39 -30 0 -22 5 -25 43 -28
34 -3 42 -7 42 -23 0 -53 75 -133 135 -145 32 -6 35 -9 35 -39 0 -37 19 -58
44 -49 11 4 16 18 16 45 l0 39 120 0 120 0 0 -28 c0 -16 6 -37 14 -48 21 -28
50 -7 54 39 3 31 9 38 47 57 49 24 82 63 96 115 9 30 14 34 47 37 32 3 37 6
37 28 0 22 -5 25 -37 28 l-38 3 0 124 0 124 38 3 c30 2 38 7 40 27 4 27 -12
41 -49 41 -22 0 -29 8 -43 45 -19 47 -63 91 -108 107 -22 8 -28 16 -28 38 0
40 -10 60 -29 60 -26 0 -41 -21 -41 -57 l0 -34 -117 3 -118 3 -5 40 c-4 31
-10 41 -25 43 -12 2 -24 0 -28 -4z m378 -158 c55 -23 65 -55 65 -213 l0 -137
-108 -108 -108 -108 -136 0 c-208 0 -211 3 -206 303 3 203 3 206 28 232 14 15
34 31 45 35 36 16 382 12 420 -4z m65 -472 c0 -36 -59 -94 -96 -94 -28 0 -27
2 31 60 33 33 61 60 62 60 2 0 3 -12 3 -26z"/>
<path d="M6851 2286 c-9 -11 -10 -20 -1 -36 13 -24 38 -23 53 1 23 37 -25 68
-52 35z"/>
<path d="M6568 2211 l-33 -29 0 -106 c0 -102 1 -106 28 -133 25 -26 35 -28
114 -32 98 -4 142 11 162 55 6 14 11 68 11 120 0 92 -1 97 -29 125 -28 28 -33
29 -125 29 -92 0 -97 -1 -128 -29z m206 -47 c20 -19 23 -153 4 -172 -13 -13
-164 -17 -171 -4 -3 4 -8 41 -12 83 -9 99 0 109 95 109 49 0 73 -4 84 -16z"/>
<path d="M692 2452 c-9 -7 -12 -64 -10 -253 l3 -244 30 0 30 0 3 239 c2 237
-1 266 -32 266 -6 0 -17 -4 -24 -8z"/>
<path d="M7445 2126 c-140 -65 -192 -232 -119 -383 19 -40 73 -98 234 -254
116 -111 225 -212 243 -224 42 -29 119 -55 162 -55 34 0 35 1 35 40 l0 40 -43
0 c-79 0 -128 36 -353 257 -177 174 -213 215 -223 249 -35 130 15 238 126 270
107 31 172 -1 353 -176 l135 -130 3 45 3 46 -117 112 c-64 62 -133 123 -152
136 -81 55 -203 67 -287 27z"/>
<path d="M195 2108 c-28 -17 -62 -56 -118 -138 l-78 -115 3 -120 3 -120 94
140 c52 77 107 157 121 177 l27 37 59 -40 c58 -38 59 -40 59 -86 l0 -46 105
-73 105 -73 33 20 c18 10 37 19 43 19 15 0 119 -72 119 -82 0 -6 -173 -265
-385 -576 l-385 -566 0 -78 c0 -69 2 -78 18 -78 10 0 35 15 55 32 20 18 190
260 378 538 188 278 370 547 405 597 35 51 66 108 70 127 8 45 -9 96 -44 128
-15 14 -148 108 -296 208 -301 204 -317 211 -391 168z"/>
<path d="M7523 1933 c-30 -12 -11 -51 61 -122 75 -75 98 -84 120 -48 9 15 -1
29 -70 97 -80 79 -87 83 -111 73z"/>
<path d="M889 1401 l-29 -29 0 -344 c1 -363 0 -357 50 -391 21 -15 54 -17 247
-17 l223 0 0 -75 0 -75 -160 0 -159 0 -14 -27 c-8 -16 -17 -47 -21 -70 l-6
-43 481 0 482 0 -6 50 c-11 93 -5 90 -187 90 l-160 0 0 75 0 75 214 0 c118 0
226 4 239 9 14 6 35 20 46 32 20 22 21 31 21 367 l0 344 -29 29 -29 29 -587 0
-587 0 -29 -29z m1151 -371 l0 -300 -535 0 -535 0 0 300 0 300 535 0 535 0 0
-300z"/>
<path d="M6817 1388 c-26 -21 -37 -64 -37 -148 0 -70 -2 -79 -20 -85 -11 -3
-31 -21 -45 -39 l-25 -33 0 -233 c0 -214 2 -235 20 -264 10 -18 30 -38 44 -45
22 -13 24 -20 28 -106 5 -139 -2 -135 224 -135 222 0 214 -5 214 136 0 86 1
91 24 102 13 6 37 27 52 48 l29 37 0 222 c0 219 0 222 -25 257 -13 20 -37 44
-52 53 -27 16 -28 18 -28 110 0 89 -1 95 -26 114 -25 19 -40 21 -193 21 -118
0 -172 -4 -184 -12z m381 -340 c8 -8 12 -67 12 -199 0 -157 -3 -190 -16 -203
-13 -13 -45 -16 -190 -16 -230 0 -214 -16 -214 213 0 140 3 177 16 195 15 21
20 22 198 22 128 0 186 -4 194 -12z"/>
</g>
</svg>
