<?xml version="1.0" standalone="no"?>
<!DOCTYPE svg PUBLIC "-//W3C//DTD SVG 20010904//EN"
 "http://www.w3.org/TR/2001/REC-SVG-20010904/DTD/svg10.dtd">
<svg version="1.0" xmlns="http://www.w3.org/2000/svg"
 width="500.000000pt" height="500.000000pt" viewBox="0 0 500.000000 500.000000"
 preserveAspectRatio="xMidYMid meet">

<g transform="translate(0.000000,500.000000) scale(0.100000,-0.100000)"
fill="#000000" stroke="none">
<path d="M1250 3746 c0 -2 39 -71 87 -153 48 -81 98 -169 112 -195 l26 -48
1025 0 1025 1 111 192 c61 106 109 195 107 199 -4 8 -2493 11 -2493 4z"/>
<path d="M1375 3203 c18 -49 420 -732 427 -725 13 13 221 377 221 387 0 6 -44
88 -99 183 l-99 172 -229 0 c-213 0 -228 -1 -221 -17z"/>
<path d="M2295 3063 c-50 -85 -88 -157 -87 -160 2 -3 -1 -9 -6 -12 -8 -5 -566
-961 -608 -1044 l-15 -27 921 0 921 1 -35 62 c-19 34 -70 123 -113 197 l-79
135 -449 2 c-248 2 -455 4 -462 5 -6 2 36 84 94 183 57 99 105 185 106 190 1
6 5 12 8 15 13 10 152 255 152 268 0 6 4 12 8 12 8 0 189 313 189 326 0 3
-102 4 -228 3 l-227 -1 -90 -155z m-125 -648 c0 -8 -4 -15 -10 -15 -5 0 -7 7
-4 15 4 8 8 15 10 15 2 0 4 -7 4 -15z m204 -491 c3 -8 2 -12 -4 -9 -6 3 -10
10 -10 16 0 14 7 11 14 -7z"/>
<path d="M3139 3158 c-19 -35 -88 -154 -152 -266 -64 -111 -117 -209 -117
-217 0 -8 -4 -15 -9 -15 -9 0 -181 -289 -181 -303 0 -4 103 -7 229 -7 l228 0
241 418 c132 229 244 425 247 434 6 15 -12 17 -222 17 l-228 1 -36 -62z m235
-146 c2 -4 -9 -15 -25 -24 -30 -17 -44 -12 -29 11 4 8 13 10 19 7 6 -4 11 -2
11 3 0 13 17 15 24 3z"/>
<path d="M2250 1686 c0 -2 23 -44 51 -94 39 -70 54 -90 67 -86 14 5 14 4 3 -4
-12 -8 -3 -29 47 -114 33 -56 64 -111 68 -120 8 -24 17 -22 30 5 6 12 51 92
101 177 50 85 100 174 112 198 l21 42 -250 0 c-137 0 -250 -2 -250 -4z"/>
</g>
</svg>
